<?xml version="1.0" encoding="UTF-8"?>
<svg id="Layer_1" data-name="Layer 1" xmlns="http://www.w3.org/2000/svg" viewBox="0 0 190 190">
  <defs>
    <style>
      .cls-1 {
        fill: #002c4b;
      }

      .cls-2 {
        fill: #77e1ff;
      }

      .cls-3 {
        fill: #161ede;
      }

      .cls-4 {
        fill: #ff4154;
        fill-rule: evenodd;
      }
    </style>
  </defs>
  <path class="cls-1" d="M150.28,61.34c3.09-14.98,3.76-26.47,1.76-34.81-1.19-4.96-3.36-9.01-6.67-11.93-3.49-3.08-7.9-4.6-12.86-4.6-8.18,0-16.78,3.73-25.96,10.8-3.75,2.89-7.64,6.37-11.68,10.44-.32-.41-.68-.8-1.09-1.16-11.42-10.17-21.03-16.48-29.26-18.92-4.89-1.45-9.48-1.59-13.66-.18-4.41,1.48-7.93,4.55-10.41,8.85-4.09,7.09-5.17,16.4-3.65,27.9,.62,4.69,1.69,9.79,3.19,15.33-.57,.07-1.14,.19-1.7,.38-14.49,4.8-24.75,9.95-30.96,15.85-3.7,3.51-6.11,7.41-6.98,11.73-.92,4.56-.02,9.14,2.45,13.43,4.09,7.08,11.6,12.66,22.3,17.08,4.3,1.78,9.16,3.38,14.59,4.83-.25,.56-.44,1.15-.57,1.78-3.09,14.98-3.76,26.47-1.76,34.81,1.19,4.96,3.36,9.01,6.67,11.93,3.49,3.08,7.9,4.6,12.86,4.6,8.18,0,16.78-3.73,25.96-10.8,3.79-2.92,7.72-6.44,11.8-10.57,.42,.66,.94,1.27,1.55,1.81,11.42,10.17,21.03,16.48,29.26,18.92,4.89,1.45,9.48,1.59,13.66,.18,4.41-1.48,7.93-4.55,10.41-8.85,4.09-7.09,5.17-16.4,3.65-27.9-.64-4.86-1.76-10.16-3.35-15.93,.62-.06,1.25-.19,1.86-.4,14.49-4.8,24.75-9.95,30.96-15.85,3.7-3.51,6.11-7.41,6.98-11.73,.92-4.56,.02-9.14-2.45-13.43-4.09-7.08-11.6-12.66-22.3-17.08-4.43-1.83-9.45-3.48-15.08-4.96,.2-.49,.36-1.01,.47-1.54Z"/>
  <path class="cls-4" d="M54.86,108.36c1.31-.75,2.98-.28,3.72,1.04h0l.47,.84c3.8,6.74,7.77,13.14,11.89,19.19,4.87,7.15,10.34,14.39,16.42,21.72,.95,1.15,.82,2.86-.3,3.85h0l-.61,.54c-20.11,17.57-33.18,21.08-39.21,10.53-5.9-10.32-3.76-29.08,6.4-56.28,.23-.6,.65-1.11,1.21-1.43Zm85.67,20.68c1.45-.26,2.84,.7,3.13,2.15h0l.15,.79c4.97,26.01,1.47,39.01-10.5,39.01s-26.61-11.09-44.7-33.27c-.4-.49-.62-1.11-.61-1.75,.01-1.5,1.24-2.71,2.73-2.69h.95c7.62,.05,15.03-.22,22.23-.79,8.5-.67,17.37-1.83,26.62-3.46Zm6.87-55.23c.52-1.41,2.1-2.15,3.55-1.66h0l.79,.27c25.84,8.8,35.66,18.48,29.46,29.02-6.07,10.31-23.71,17.82-52.94,22.53-.65,.1-1.31-.02-1.88-.34-1.34-.77-1.78-2.46-.99-3.77h0l.5-.84c3.99-6.69,7.59-13.36,10.81-19.99,3.8-7.83,7.37-16.23,10.71-25.21Zm-85.67-7.78c.65-.1,1.31,.02,1.88,.34,1.34,.77,1.78,2.46,.99,3.77h0l-.5,.84c-3.99,6.69-7.59,13.36-10.81,19.99-3.8,7.83-7.37,16.23-10.71,25.21-.52,1.41-2.1,2.15-3.55,1.66h0l-.79-.27c-25.84-8.8-35.66-18.48-29.46-29.02,6.07-10.31,23.71-17.82,52.94-22.53Zm41.81-31.57c20.11-17.57,33.18-21.08,39.21-10.53,5.9,10.32,3.76,29.08-6.4,56.28-.23,.6-.65,1.11-1.21,1.43-1.31,.75-2.98,.28-3.72-1.04h0l-.47-.84c-3.8-6.74-7.77-13.14-11.89-19.19-4.87-7.15-10.34-14.39-16.42-21.72-.95-1.15-.82-2.86,.3-3.85h0l.61-.54ZM57.68,18c11.71,0,26.61,11.09,44.7,33.27,.4,.49,.62,1.11,.61,1.75-.01,1.5-1.24,2.71-2.73,2.69h-.95c-7.62-.05-15.03,.22-22.23,.79-8.5,.67-17.37,1.83-26.62,3.46-1.45,.26-2.84-.7-3.13-2.15h0l-.15-.79c-4.97-26.01-1.47-39.01,10.5-39.01Z"/>
  <path class="cls-2" d="M118.24,71.17l-3.26,3.26c-3.22-3.22-7.18-5.6-11.54-6.93-4.36-1.32-8.97-1.55-13.44-.67-4.47,.89-8.64,2.86-12.17,5.75-3.52,2.89-6.27,6.6-8.02,10.81-1.74,4.21-2.42,8.78-1.97,13.31,.45,4.53,2,8.88,4.54,12.67,2.53,3.79,5.96,6.89,9.97,9.03,4.02,2.14,8.5,3.26,13.05,3.26v4.61c-5.31,0-10.53-1.31-15.22-3.81-4.68-2.5-8.67-6.12-11.62-10.53-2.95-4.41-4.76-9.49-5.28-14.77-.52-5.28,.27-10.61,2.3-15.52,2.03-4.9,5.24-9.23,9.34-12.6,4.1-3.37,8.97-5.67,14.18-6.71,5.21-1.04,10.59-.77,15.67,.77,5.08,1.54,9.7,4.31,13.46,8.06Z"/>
  <path class="cls-2" d="M95.41,70.94c-5.08,0-10.01,1.68-14.04,4.77-4.03,3.09-6.92,7.43-8.24,12.33-1.31,4.9-.97,10.11,.97,14.8,1.95,4.69,5.38,8.61,9.78,11.14l2.3-3.99c-1.4-.81-2.69-1.8-3.83-2.95-1.71-1.71-3.07-3.75-4-5.98-.93-2.24-1.4-4.64-1.4-7.06s.48-4.82,1.4-7.06c.93-2.24,2.29-4.27,4-5.98,1.71-1.71,3.75-3.07,5.98-4,2.24-.93,4.64-1.4,7.06-1.4s4.82,.48,7.06,1.4c2.24,.93,4.27,2.29,5.98,4l3.26-3.26c-2.14-2.14-4.68-3.85-7.48-5-2.8-1.16-5.8-1.75-8.83-1.75Z"/>
  <path class="cls-3" d="M111.72,110.3c-2.68,2.69-5.98,4.67-9.62,5.78-3.63,1.11-7.48,1.3-11.21,.56-3.72-.74-7.21-2.38-10.14-4.79-2.94-2.41-5.23-5.5-6.69-9.01-1.45-3.51-2.02-7.32-1.64-11.1,.37-3.78,1.67-7.41,3.79-10.56,2.11-3.16,4.97-5.74,8.32-7.53,3.35-1.79,7.09-2.72,10.89-2.71v-4.61c-4.55,0-9.03,1.12-13.04,3.27-4.01,2.15-7.44,5.25-9.96,9.03-2.53,3.78-4.08,8.13-4.53,12.66-.45,4.53,.23,9.1,1.97,13.3,1.74,4.2,4.49,7.91,8.01,10.8,3.52,2.89,7.69,4.86,12.16,5.75,4.46,.89,9.08,.66,13.43-.66,4.35-1.32,8.32-3.7,11.53-6.91l-3.26-3.26Z"/>
  <path class="cls-3" d="M105.19,103.78c-1.39,1.39-3.07,2.47-4.91,3.16-1.84,.69-3.81,.98-5.77,.85-1.96-.13-3.88-.68-5.61-1.61-1.73-.93-3.25-2.22-4.45-3.78-1.2-1.56-2.05-3.36-2.5-5.28-.45-1.92-.48-3.91-.1-5.84,.38-1.93,1.17-3.76,2.32-5.36,1.15-1.6,2.62-2.94,4.32-3.92l-2.3-3.99c-2.28,1.31-4.24,3.09-5.78,5.23-1.53,2.13-2.59,4.57-3.1,7.15-.51,2.58-.47,5.23,.12,7.79,.6,2.56,1.73,4.96,3.33,7.04,1.6,2.08,3.62,3.8,5.94,5.04,2.32,1.24,4.87,1.97,7.49,2.14,2.62,.17,5.25-.22,7.71-1.14,2.46-.93,4.69-2.36,6.55-4.22l-3.26-3.27Z"/>
</svg>